<svg xmlns="http://www.w3.org/2000/svg" viewBox="0 0 240 240" role="img" aria-labelledby="title desc">
  <title id="title">灵鸢实验室标志</title>
  <desc id="desc">深空蓝底色上的抽象鸢翼、协作节点与星点</desc>
  <rect width="240" height="240" rx="54" fill="#152137"/>
  <path d="M38 165 C81 151 123 112 150 53 C154 94 177 117 215 120 C196 142 168 156 141 147 C115 138 80 153 38 165 Z" fill="#F6F5F1"/>
  <path d="M58 184 C100 169 140 160 188 170" fill="none" stroke="#7CB6C8" stroke-width="4" stroke-linecap="round"/>
  <circle cx="60" cy="183" r="5" fill="#D9AC73"/>
  <circle cx="124" cy="165" r="5" fill="#F6F5F1"/>
  <circle cx="188" cy="170" r="5" fill="#D9AC73"/>
  <path d="M198 54 L202 65 L213 69 L202 73 L198 84 L194 73 L183 69 L194 65 Z" fill="#D9AC73"/>
</svg>
